<svg width="87" height="54" viewBox="0 0 87 54" fill="none" xmlns="http://www.w3.org/2000/svg">
<path d="M12.8409 46.7234C21.7045 46.7234 27.0739 41.2404 27.0739 32.1495C27.0739 23.087 21.7045 17.6325 12.9261 17.6325H2.52841V46.7234H12.8409ZM8.67898 41.4535V22.9024H12.5994C18.054 22.9024 20.9375 25.6865 20.9375 32.1495C20.9375 38.641 18.054 41.4535 12.5852 41.4535H8.67898Z" fill="#594C70"/>
<path d="M40.2941 0C39.6305 0 39.1092 0.517 39.1092 1.175V11.75C38.9433 11.75 38.7537 11.75 38.5879 11.8205C36.3129 12.3845 34.8674 14.1 33.801 16.1915C32.7109 18.236 32 20.774 32 23.5C32.1185 30.55 32 37.6705 32 44.65C32 45.9425 33.0664 47 34.3697 47H48.5881C49.8915 47 50.9579 45.9425 50.9579 44.65C51.0527 37.6 50.9579 30.55 50.9579 23.5C50.9579 20.774 50.3417 18.236 49.2517 16.168C48.1853 14.1 46.7397 12.3845 44.4648 11.844C44.2752 11.75 43.9672 11.75 43.8487 11.75V1.175C43.8487 0.517 43.3273 0 42.6638 0H40.2941ZM41.4789 16.0975C42.2373 16.0975 42.9719 16.215 43.3273 16.45C43.4932 16.5205 44.3226 17.061 45.0335 18.3535C45.6971 19.6695 46.2184 21.5495 46.2184 23.5V42.3H36.7395V23.5C36.7395 21.5495 37.2608 19.6695 37.9243 18.3535C38.6353 17.061 39.4647 16.5205 39.6305 16.45C39.9623 16.215 40.7206 16.0975 41.4789 16.0975Z" fill="#594C70"/>
<path d="M55.8239 17.9091L66.4347 36.7159V47H72.5426V36.7159L83.1534 17.9091H76.2642L69.6307 30.4375H69.3466L62.7131 17.9091H55.8239Z" fill="#594C70"/>
<line x1="35" y1="27" x2="49" y2="27" stroke="#594C70" stroke-width="2"/>
<line x1="35" y1="21" x2="49" y2="21" stroke="#594C70" stroke-width="2"/>
</svg>
